# xmcd
# 
# Track frame offsets:
#   150
#   17431
#   48389
#   67276
#   82537
#   102245
#   115893
# 
# Disc length: 1833 seconds
# 
# Revision: 1
# Processed by: cddbd v1.5.1PL0 Copyright (c) Steve Scherf et al.
# Submitted via: VOLTOCDX V1.0.24 
# 
DISCID=4e072707
DTITLE=My Artist - My Title
DYEAR=2005
DGENRE=Description of the extended genre
TTITLE0=Goodbye
TTITLE1=Everyday
TTITLE2=The Distance
TTITLE3=
TTITLE4=
TTITLE5=
TTITLE6=
EXTD=Extended CD description
EXTT0=
EXTT1=
EXTT2=
EXTT3=
EXTT4=
EXTT5=
EXTT6=
PLAYORDER=
